<?xml version="1.0" encoding="UTF-8" standalone="no"?>
<svg
   width="512"
   height="512"
   viewBox="0 0 512 512"
   fill="none"
   version="1.1"
   id="svg3"
   sodipodi:docname="io.github.heathcliff26.turbo-clicker.svg"
   inkscape:version="1.4.2 (ebf0e940d0, 2025-05-08)"
   xmlns:inkscape="http://www.inkscape.org/namespaces/inkscape"
   xmlns:sodipodi="http://sodipodi.sourceforge.net/DTD/sodipodi-0.dtd"
   xmlns="http://www.w3.org/2000/svg"
   xmlns:svg="http://www.w3.org/2000/svg">
  <defs
     id="defs3">
    <inkscape:path-effect
       effect="bspline"
       id="path-effect8"
       is_visible="true"
       lpeversion="1.3"
       weight="33.333333"
       steps="2"
       helper_size="0"
       apply_no_weight="true"
       apply_with_weight="true"
       only_selected="false"
       uniform="false" />
    <inkscape:path-effect
       effect="bspline"
       id="path-effect7"
       is_visible="true"
       lpeversion="1.3"
       weight="33.333333"
       steps="2"
       helper_size="0"
       apply_no_weight="true"
       apply_with_weight="true"
       only_selected="false"
       uniform="false" />
    <inkscape:path-effect
       effect="bspline"
       id="path-effect6"
       is_visible="true"
       lpeversion="1.3"
       weight="33.333333"
       steps="2"
       helper_size="0"
       apply_no_weight="true"
       apply_with_weight="true"
       only_selected="false"
       uniform="false" />
    <inkscape:path-effect
       effect="bspline"
       id="path-effect5"
       is_visible="true"
       lpeversion="1.3"
       weight="33.333333"
       steps="2"
       helper_size="0"
       apply_no_weight="true"
       apply_with_weight="true"
       only_selected="false"
       uniform="false" />
    <inkscape:path-effect
       effect="bspline"
       id="path-effect4"
       is_visible="true"
       lpeversion="1.3"
       weight="33.333333"
       steps="2"
       helper_size="0"
       apply_no_weight="true"
       apply_with_weight="true"
       only_selected="false"
       uniform="false" />
    <inkscape:path-effect
       effect="bspline"
       id="path-effect8-3"
       is_visible="true"
       lpeversion="1.3"
       weight="33.333333"
       steps="2"
       helper_size="0"
       apply_no_weight="true"
       apply_with_weight="true"
       only_selected="false"
       uniform="false" />
    <inkscape:path-effect
       effect="bspline"
       id="path-effect8-5"
       is_visible="true"
       lpeversion="1.3"
       weight="33.333333"
       steps="2"
       helper_size="0"
       apply_no_weight="true"
       apply_with_weight="true"
       only_selected="false"
       uniform="false" />
    <inkscape:path-effect
       effect="bspline"
       id="path-effect8-5-6"
       is_visible="true"
       lpeversion="1.3"
       weight="33.333333"
       steps="2"
       helper_size="0"
       apply_no_weight="true"
       apply_with_weight="true"
       only_selected="false"
       uniform="false" />
    <inkscape:path-effect
       effect="bspline"
       id="path-effect8-5-1"
       is_visible="true"
       lpeversion="1.3"
       weight="33.333333"
       steps="2"
       helper_size="0"
       apply_no_weight="true"
       apply_with_weight="true"
       only_selected="false"
       uniform="false" />
    <inkscape:path-effect
       effect="bspline"
       id="path-effect8-5-1-0"
       is_visible="true"
       lpeversion="1.3"
       weight="33.333333"
       steps="2"
       helper_size="0"
       apply_no_weight="true"
       apply_with_weight="true"
       only_selected="false"
       uniform="false" />
    <inkscape:path-effect
       effect="bspline"
       id="path-effect8-5-1-6"
       is_visible="true"
       lpeversion="1.3"
       weight="33.333333"
       steps="2"
       helper_size="0"
       apply_no_weight="true"
       apply_with_weight="true"
       only_selected="false"
       uniform="false" />
    <inkscape:path-effect
       effect="bspline"
       id="path-effect8-5-1-6-2"
       is_visible="true"
       lpeversion="1.3"
       weight="33.333333"
       steps="2"
       helper_size="0"
       apply_no_weight="true"
       apply_with_weight="true"
       only_selected="false"
       uniform="false" />
  </defs>
  <sodipodi:namedview
     id="namedview3"
     pagecolor="#505050"
     bordercolor="#eeeeee"
     borderopacity="1"
     inkscape:showpageshadow="0"
     inkscape:pageopacity="0"
     inkscape:pagecheckerboard="0"
     inkscape:deskcolor="#505050"
     inkscape:zoom="1.97"
     inkscape:cx="213.70558"
     inkscape:cy="291.11675"
     inkscape:window-width="2560"
     inkscape:window-height="1311"
     inkscape:window-x="0"
     inkscape:window-y="0"
     inkscape:window-maximized="1"
     inkscape:current-layer="g3" />
  <g
     id="g3"
     transform="matrix(2.4263959,0,0,2.2277918,10.913707,12.912433)">
    <!-- Mouse body -->
    <path
       d="M 100,30 C 70,30 50,50 50,80 v 70 c 0,30 20,40 50,40 30,0 50,-10 50,-40 V 80 C 150,50 130,30 100,30 Z"
       fill="#333333"
       id="path1"
       style="fill:#b3b3b3" />
    <!-- Left click button -->
    <path
       d="M 100,30 C 74.999999,30 50,42.972575 50,62.431436 v 32.431437 h 50 z"
       fill="#FF7043"
       id="path2"
       style="stroke-width:1.47041"
       sodipodi:nodetypes="csccc" />
    <!-- Right click button -->
    <path
       d="m 100,30 c 24.99999,0 50,12.972575 50,32.431437 v 32.431436 h -50 z"
       fill="#66bb6a"
       id="path3"
       style="stroke-width:1.47041;opacity:1;fill:#808080"
       sodipodi:nodetypes="csccc" />
    <!-- Scroll wheel -->
    <rect
       x="90"
       y="50"
       width="20"
       height="30"
       rx="5"
       fill="#555555"
       id="rect3" />
    <path
       style="fill:#000000;stroke-width:0.430112"
       d="m 25.801953,17.824933 c -1.778243,7.367322 -1.917713,22.17792 -0.244073,29.545241 1.67364,7.367321 5.160391,7.29137 6.938634,-0.07595 1.778242,-7.367322 1.847977,-22.026015 0.174337,-29.393337 -1.67364,-7.367322 -5.090656,-7.443273 -6.868898,-0.07595 z"
       id="path7"
       inkscape:path-effect="#path-effect8"
       inkscape:original-d="m 24.16318,10.38166 c -0.13947,14.810595 -0.27894,29.621193 -0.41841,44.431787 3.48675,-0.07595 6.973501,-0.151904 10.460251,-0.227855 0.06973,-14.658692 0.13947,-29.317385 0.209205,-43.976077 -3.417015,-0.07595 -6.834031,-0.151903 -10.251046,-0.227855 z"
       transform="matrix(0.29518231,0,0,0.23524453,61.339303,74.34642)" />
    <path
       style="fill:#000000;stroke-width:0.430112"
       d="m 25.801953,17.824933 c -1.778243,7.367322 -1.917713,22.17792 -0.244073,29.545241 1.67364,7.367321 5.160391,7.29137 6.938634,-0.07595 1.778242,-7.367322 1.847977,-22.026015 0.174337,-29.393337 -1.67364,-7.367322 -5.090656,-7.443273 -6.868898,-0.07595 z"
       id="path7-7"
       inkscape:path-effect="#path-effect8-3"
       inkscape:original-d="m 24.16318,10.38166 c -0.13947,14.810595 -0.27894,29.621193 -0.41841,44.431787 3.48675,-0.07595 6.973501,-0.151904 10.460251,-0.227855 0.06973,-14.658692 0.13947,-29.317385 0.209205,-43.976077 -3.417015,-0.07595 -6.834031,-0.151903 -10.251046,-0.227855 z"
       transform="matrix(0.29518231,0,0,0.23524453,61.472479,56.837403)" />
    <path
       style="fill:#000000;stroke-width:0.430112"
       d="m 25.801953,17.824933 c -1.778243,7.367322 -1.917713,22.17792 -0.244073,29.545241 1.67364,7.367321 5.160391,7.29137 6.938634,-0.07595 1.778242,-7.367322 1.847977,-22.026015 0.174337,-29.393337 -1.67364,-7.367322 -5.090656,-7.443273 -6.868898,-0.07595 z"
       id="path7-5"
       inkscape:path-effect="#path-effect8-5"
       inkscape:original-d="m 24.16318,10.38166 c -0.13947,14.810595 -0.27894,29.621193 -0.41841,44.431787 3.48675,-0.07595 6.973501,-0.151904 10.460251,-0.227855 0.06973,-14.658692 0.13947,-29.317385 0.209205,-43.976077 -3.417015,-0.07595 -6.834031,-0.151903 -10.251046,-0.227855 z"
       transform="matrix(0,0.32149734,-0.21598942,0,69.645521,63.721417)" />
    <path
       style="fill:#000000;stroke-width:0.430112"
       d="m 25.801953,17.824933 c -1.778243,7.367322 -1.917713,22.17792 -0.244073,29.545241 1.67364,7.367321 5.160391,7.29137 6.938634,-0.07595 1.778242,-7.367322 1.847977,-22.026015 0.174337,-29.393337 -1.67364,-7.367322 -5.090656,-7.443273 -6.868898,-0.07595 z"
       id="path7-5-9"
       inkscape:path-effect="#path-effect8-5-6"
       inkscape:original-d="m 24.16318,10.38166 c -0.13947,14.810595 -0.27894,29.621193 -0.41841,44.431787 3.48675,-0.07595 6.973501,-0.151904 10.460251,-0.227855 0.06973,-14.658692 0.13947,-29.317385 0.209205,-43.976077 -3.417015,-0.07595 -6.834031,-0.151903 -10.251046,-0.227855 z"
       transform="matrix(0,0.32149734,-0.21598942,0,85.232633,63.925026)" />
    <path
       style="fill:#000000;stroke-width:0.430112"
       d="m 25.801953,17.824933 c -1.778243,7.367322 -1.917713,22.17792 -0.244073,29.545241 1.67364,7.367321 5.160391,7.29137 6.938634,-0.07595 1.778242,-7.367322 1.847977,-22.026015 0.174337,-29.393337 -1.67364,-7.367322 -5.090656,-7.443273 -6.868898,-0.07595 z"
       id="path7-5-7"
       inkscape:path-effect="#path-effect8-5-1"
       inkscape:original-d="m 24.16318,10.38166 c -0.13947,14.810595 -0.27894,29.621193 -0.41841,44.431787 3.48675,-0.07595 6.973501,-0.151904 10.460251,-0.227855 0.06973,-14.658692 0.13947,-29.317385 0.209205,-43.976077 -3.417015,-0.07595 -6.834031,-0.151903 -10.251046,-0.227855 z"
       transform="matrix(-0.20872541,0.22733295,-0.15272758,-0.16634301,75.34872,65.771702)" />
    <path
       style="fill:#000000;stroke-width:0.430112"
       d="m 25.801953,17.824933 c -1.778243,7.367322 -1.917713,22.17792 -0.244073,29.545241 1.67364,7.367321 5.160391,7.29137 6.938634,-0.07595 1.778242,-7.367322 1.847977,-22.026015 0.174337,-29.393337 -1.67364,-7.367322 -5.090656,-7.443273 -6.868898,-0.07595 z"
       id="path7-5-7-3"
       inkscape:path-effect="#path-effect8-5-1-0"
       inkscape:original-d="m 24.16318,10.38166 c -0.13947,14.810595 -0.27894,29.621193 -0.41841,44.431787 3.48675,-0.07595 6.973501,-0.151904 10.460251,-0.227855 0.06973,-14.658692 0.13947,-29.317385 0.209205,-43.976077 -3.417015,-0.07595 -6.834031,-0.151903 -10.251046,-0.227855 z"
       transform="matrix(-0.20872541,0.22733295,-0.15272758,-0.16634301,87.461944,79.03704)" />
    <path
       style="fill:#000000;stroke-width:0.430112"
       d="m 25.801953,17.824933 c -1.778243,7.367322 -1.917713,22.17792 -0.244073,29.545241 1.67364,7.367321 5.160391,7.29137 6.938634,-0.07595 1.778242,-7.367322 1.847977,-22.026015 0.174337,-29.393337 -1.67364,-7.367322 -5.090656,-7.443273 -6.868898,-0.07595 z"
       id="path7-5-7-6"
       inkscape:path-effect="#path-effect8-5-1-6"
       inkscape:original-d="m 24.16318,10.38166 c -0.13947,14.810595 -0.27894,29.621193 -0.41841,44.431787 3.48675,-0.07595 6.973501,-0.151904 10.460251,-0.227855 0.06973,-14.658692 0.13947,-29.317385 0.209205,-43.976077 -3.417015,-0.07595 -6.834031,-0.151903 -10.251046,-0.227855 z"
       transform="matrix(0.20872541,0.22733295,-0.15272759,0.166343,63.069559,67.409778)" />
    <path
       style="fill:#000000;stroke-width:0.430112"
       d="m 25.801953,17.824933 c -1.778243,7.367322 -1.917713,22.17792 -0.244073,29.545241 1.67364,7.367321 5.160391,7.29137 6.938634,-0.07595 1.778242,-7.367322 1.847977,-22.026015 0.174337,-29.393337 -1.67364,-7.367322 -5.090656,-7.443273 -6.868898,-0.07595 z"
       id="path7-5-7-6-1"
       inkscape:path-effect="#path-effect8-5-1-6-2"
       inkscape:original-d="m 24.16318,10.38166 c -0.13947,14.810595 -0.27894,29.621193 -0.41841,44.431787 3.48675,-0.07595 6.973501,-0.151904 10.460251,-0.227855 0.06973,-14.658692 0.13947,-29.317385 0.209205,-43.976077 -3.417015,-0.07595 -6.834031,-0.151903 -10.251046,-0.227855 z"
       transform="matrix(0.20872541,0.22733295,-0.15272759,0.166343,74.866353,55.280895)" />
  </g>
</svg>
